<svg width="114" height="92" viewBox="0 0 114 92" fill="none" xmlns="http://www.w3.org/2000/svg">
<g filter="url(#filter0_dddddd_1_326)">
<rect x="-74" y="-29.0941" width="267" height="314" rx="36" fill="white"/>
</g>
<path d="M22.8052 41.9058C22.8052 51.8469 30.864 59.9058 40.8052 59.9058L67.8052 59.9058C70.5666 59.9058 72.8052 57.6672 72.8052 54.9058L72.8052 20.9058C72.8052 15.3829 68.328 10.9058 62.8052 10.9058L27.8052 10.9058C25.0437 10.9058 22.8052 13.1443 22.8052 15.9058L22.8052 41.9058Z" fill="#FFF1DA"/>
<path d="M71.3891 55.8472C70.0307 56.1514 68.7077 56.715 67.5022 57.5024C64.3614 59.5037 62.5341 62.3604 63.421 63.8826C64.308 65.4047 67.5731 65.0154 70.7138 63.0141C71.9356 62.2545 73.021 61.2837 73.9032 60.1618C74.3125 59.6197 74.386 58.9442 74.0908 58.4393L72.9386 56.4619C72.6454 55.9554 72.0374 55.7145 71.3891 55.8472Z" fill="#D5D6DB"/>
<path d="M63.5021 28.8541C62.5171 29.0748 61.5577 29.4837 60.6834 30.0547C58.4066 31.5055 57.0808 33.5769 57.7234 34.6797C58.366 35.7825 60.7345 35.4999 63.0111 34.0493C63.897 33.4982 64.6839 32.794 65.3237 31.9803C65.6202 31.5874 65.6733 31.098 65.4593 30.732L64.6251 29.3002C64.4128 28.933 63.9722 28.758 63.5021 28.8541Z" fill="#D5D6DB"/>
<path d="M50.688 29.9845C50.4687 29.96 50.2349 30.0184 50.0322 30.1479L44.684 33.5562C44.2366 33.8404 44.0576 34.3877 44.2845 34.7789C44.3364 34.8685 44.4075 34.9451 44.4937 35.0041L57.6753 44.089L75.5088 32.7243L50.688 29.9845Z" fill="#029BC5"/>
<path d="M107.065 28.6999L58.5329 59.252L29.8201 70.6774L15.177 73.5882L13.566 70.851L94.4612 20.9043C96.872 19.4095 99.5576 18.4919 102.246 18.2448C103.424 18.1429 104.587 18.1821 105.708 18.3609C106.702 18.5116 107.645 18.8023 108.508 19.2244C109.472 19.7026 111.307 19.7578 111.901 20.7106C111.903 20.7091 113.305 25.0835 107.065 28.6999V28.6999Z" fill="#E1E6E9"/>
<path d="M59.1762 55.2095L38.1809 88.6794C37.9187 89.1496 38.0744 89.676 38.5283 89.8553C38.8068 89.9653 39.1477 89.9219 39.4341 89.7399L44.7781 86.3497C45.806 85.6974 46.7161 84.8688 47.4523 83.9152L88.1686 36.0462L59.1762 55.2095Z" fill="#029BC5"/>
<path d="M6.19662 54.092C5.8464 53.9723 5.42961 54.0344 5.07778 54.2584L0.660289 57.0718C0.0583729 57.4549 -0.181478 58.1913 0.124384 58.717C0.18266 58.8169 0.258359 58.9049 0.349096 58.9773L12.7259 68.8896L25.7389 60.7615L6.19662 54.092Z" fill="#029BC5"/>
<path d="M16.8743 70.6766L10.2128 80.0061C10.1152 80.1401 10.1381 80.3085 10.2641 80.3818C10.3549 80.4346 10.4789 80.4251 10.5797 80.3576L14.708 77.7416C14.74 77.7213 14.7691 77.6958 14.7931 77.6667L24.5266 65.832L16.8743 70.6766Z" fill="#029BC5"/>
<path d="M104.911 18.7631C103.757 18.5777 102.559 18.5381 101.346 18.6447C100.166 20.2958 99.4108 22.1505 99.1574 24.0239C99.1389 24.4002 99.4422 24.6711 99.8351 24.6289C99.9573 24.6156 100.079 24.5727 100.188 24.504L107.796 19.6597C106.906 19.2211 105.935 18.9193 104.911 18.7631Z" fill="#029BC5"/>
<path d="M88.3322 27.6713L93.2992 24.5343L97.9258 32.4033L92.9588 35.5403L88.3322 27.6713Z" fill="#D5D6DB"/>
<path d="M85.2066 30.7834C84.6081 31.1625 84.3688 31.8913 84.6727 32.411L85.165 33.253C85.4889 33.7595 86.2282 33.8485 86.8164 33.4518C87.3763 33.074 87.6017 32.3874 87.3319 31.8803L86.8396 31.0383C86.536 30.5191 85.8052 30.4048 85.2066 30.7834V30.7834Z" fill="#3A556A"/>
<path d="M80.7423 33.5559C80.1437 33.9351 79.9045 34.6639 80.2084 35.1836L80.7007 36.0256C81.0245 36.532 81.7638 36.6211 82.3521 36.2244C82.9119 35.8466 83.1373 35.1599 82.8676 34.6529L82.3752 33.8109C82.0714 33.2918 81.3406 33.1775 80.7423 33.5559V33.5559Z" fill="#3A556A"/>
<path d="M76.2764 36.3292C75.6785 36.7089 75.4401 37.4368 75.7438 37.956L76.2361 38.798C76.5599 39.3044 77.2992 39.3935 77.8875 38.9968C78.4473 38.619 78.6727 37.9324 78.403 37.4254L77.9106 36.5834C77.6068 36.0637 76.8752 35.9499 76.2764 36.3292V36.3292Z" fill="#3A556A"/>
<path d="M71.8121 39.1017C71.2142 39.4813 70.9758 40.2092 71.2794 40.7285L71.7717 41.5705C72.0956 42.077 72.8348 42.166 73.4231 41.7693C73.9829 41.3915 74.2084 40.7049 73.9386 40.1978L73.4463 39.3558C73.1422 38.8363 72.4106 38.7225 71.8121 39.1017V39.1017Z" fill="#3A556A"/>
<path d="M67.3481 41.8743C66.7499 42.2541 66.5113 42.9824 66.8151 43.5019L67.3077 44.3442C67.6114 44.8635 68.3427 44.9772 68.941 44.5982C69.5394 44.2192 69.7783 43.491 69.4746 42.9718L68.982 42.1294C68.6791 41.6097 67.9481 41.4952 67.3494 41.8735C67.3489 41.8738 67.3486 41.874 67.3481 41.8743Z" fill="#3A556A"/>
<path d="M62.8837 44.6468C62.2855 45.0266 62.047 45.7548 62.3508 46.2743L62.8434 47.1167C63.147 47.6359 63.8783 47.7497 64.4767 47.3707C65.075 46.9917 65.3139 46.2635 65.0103 45.7442L64.5177 44.9019C64.2148 44.3821 63.4838 44.2677 62.885 44.646C62.8845 44.6463 62.884 44.6466 62.8837 44.6468Z" fill="#3A556A"/>
<path d="M58.4191 47.4193C57.8209 47.7991 57.5824 48.5273 57.8862 49.0468L58.3788 49.8891C58.6832 50.4078 59.4148 50.5204 60.0125 50.1409C60.6092 49.7621 60.8476 49.0355 60.5454 48.5168L60.0528 47.6745C59.7492 47.1549 59.018 47.0406 58.4191 47.4193Z" fill="#3A556A"/>
<path d="M53.9545 50.1917C53.3563 50.5715 53.1178 51.2998 53.4216 51.8192L53.9142 52.6616C54.2186 53.1804 54.9502 53.293 55.5479 52.9135C56.1446 52.5346 56.383 51.808 56.0808 51.2893L55.5882 50.447C55.2846 49.9273 54.5534 49.813 53.9545 50.1917Z" fill="#3A556A"/>
<path d="M49.4903 52.9642C48.8921 53.344 48.6535 54.0722 48.9573 54.5917L49.4499 55.434C49.7543 55.9528 50.486 56.0653 51.0837 55.6859C51.6804 55.307 51.9188 54.5804 51.6165 54.0617L51.1239 53.2194C50.8201 52.7 50.0889 52.5856 49.4903 52.9642Z" fill="#3A556A"/>
<path d="M45.0245 55.7374C44.4261 56.1164 44.1872 56.8445 44.4909 57.3638L44.4915 57.3649L44.9841 58.2072C45.2885 58.726 46.0201 58.8386 46.6179 58.4591C47.2146 58.0803 47.453 57.3536 47.1507 56.835L46.6581 55.9926C46.3546 55.473 45.6233 55.3586 45.0245 55.7374Z" fill="#3A556A"/>
<path d="M40.5612 58.5091C39.9629 58.8881 39.724 59.6163 40.0276 60.1355L40.0283 60.1366L40.5209 60.9789C40.8253 61.4977 41.5569 61.6103 42.1546 61.2308C42.7514 60.852 42.9898 60.1253 42.6875 59.6067L42.1949 58.7644C41.8911 58.2449 41.1599 58.1306 40.5612 58.5091Z" fill="#3A556A"/>
<defs>
<filter id="filter0_dddddd_1_326" x="-154" y="-30.3904" width="427" height="495.296" filterUnits="userSpaceOnUse" color-interpolation-filters="sRGB">
<feFlood flood-opacity="0" result="BackgroundImageFix"/>
<feColorMatrix in="SourceAlpha" type="matrix" values="0 0 0 0 0 0 0 0 0 0 0 0 0 0 0 0 0 0 127 0" result="hardAlpha"/>
<feOffset dy="1.85185"/>
<feGaussianBlur stdDeviation="1.57407"/>
<feColorMatrix type="matrix" values="0 0 0 0 0 0 0 0 0 0 0 0 0 0 0 0 0 0 0.01 0"/>
<feBlend mode="normal" in2="BackgroundImageFix" result="effect1_dropShadow_1_326"/>
<feColorMatrix in="SourceAlpha" type="matrix" values="0 0 0 0 0 0 0 0 0 0 0 0 0 0 0 0 0 0 127 0" result="hardAlpha"/>
<feOffset dy="8.14815"/>
<feGaussianBlur stdDeviation="3.25926"/>
<feColorMatrix type="matrix" values="0 0 0 0 0 0 0 0 0 0 0 0 0 0 0 0 0 0 0.01 0"/>
<feBlend mode="normal" in2="effect1_dropShadow_1_326" result="effect2_dropShadow_1_326"/>
<feColorMatrix in="SourceAlpha" type="matrix" values="0 0 0 0 0 0 0 0 0 0 0 0 0 0 0 0 0 0 127 0" result="hardAlpha"/>
<feOffset dy="20"/>
<feGaussianBlur stdDeviation="6.5"/>
<feColorMatrix type="matrix" values="0 0 0 0 0 0 0 0 0 0 0 0 0 0 0 0 0 0 0.01 0"/>
<feBlend mode="normal" in2="effect2_dropShadow_1_326" result="effect3_dropShadow_1_326"/>
<feColorMatrix in="SourceAlpha" type="matrix" values="0 0 0 0 0 0 0 0 0 0 0 0 0 0 0 0 0 0 127 0" result="hardAlpha"/>
<feOffset dy="38.5185"/>
<feGaussianBlur stdDeviation="12.7407"/>
<feColorMatrix type="matrix" values="0 0 0 0 0 0 0 0 0 0 0 0 0 0 0 0 0 0 0.0121481 0"/>
<feBlend mode="normal" in2="effect3_dropShadow_1_326" result="effect4_dropShadow_1_326"/>
<feColorMatrix in="SourceAlpha" type="matrix" values="0 0 0 0 0 0 0 0 0 0 0 0 0 0 0 0 0 0 127 0" result="hardAlpha"/>
<feOffset dy="64.8148"/>
<feGaussianBlur stdDeviation="23.4259"/>
<feColorMatrix type="matrix" values="0 0 0 0 0 0 0 0 0 0 0 0 0 0 0 0 0 0 0.0151852 0"/>
<feBlend mode="normal" in2="effect4_dropShadow_1_326" result="effect5_dropShadow_1_326"/>
<feColorMatrix in="SourceAlpha" type="matrix" values="0 0 0 0 0 0 0 0 0 0 0 0 0 0 0 0 0 0 127 0" result="hardAlpha"/>
<feOffset dy="100"/>
<feGaussianBlur stdDeviation="40"/>
<feColorMatrix type="matrix" values="0 0 0 0 0 0 0 0 0 0 0 0 0 0 0 0 0 0 0.02 0"/>
<feBlend mode="normal" in2="effect5_dropShadow_1_326" result="effect6_dropShadow_1_326"/>
<feBlend mode="normal" in="SourceGraphic" in2="effect6_dropShadow_1_326" result="shape"/>
</filter>
</defs>
</svg>
