<svg width="77" height="66" viewBox="0 0 77 66" fill="none" xmlns="http://www.w3.org/2000/svg">
<path d="M27 48C27 57.9411 35.0589 66 45 66L72 66C74.7614 66 77 63.7614 77 61L77 27C77 21.4772 72.5228 17 67 17L32 17C29.2386 17 27 19.2386 27 22L27 48Z" fill="#FFF1DA"/>
<path d="M49.8994 27.8482V22.1518C49.8994 21.0351 48.9942 20.1299 47.8775 20.1299H45.6988C44.8277 20.1299 44.0547 19.5717 43.7809 18.7448C43.4759 17.8235 43.1052 16.9322 42.6746 16.0763C42.2825 15.2967 42.4326 14.3542 43.0496 13.7371L44.591 12.1957C45.3807 11.406 45.3807 10.1259 44.591 9.33622L40.5631 5.30825C39.7734 4.51861 38.4933 4.51861 37.7036 5.30825L36.1622 6.8497C35.5451 7.4668 34.6026 7.6168 33.823 7.22465C32.9671 6.79406 32.0758 6.42344 31.1545 6.11841C30.3276 5.84457 29.7694 5.07163 29.7694 4.2005V2.02193C29.7694 0.905231 28.8642 0 27.7475 0H22.0511C20.9344 0 20.0292 0.905231 20.0292 2.02193V4.2006C20.0292 5.07173 19.471 5.84467 18.6441 6.11851C17.7228 6.42354 16.8315 6.79417 15.9756 7.22475C15.196 7.6169 14.2535 7.4668 13.6364 6.8498L12.095 5.30835C11.3053 4.51871 10.0252 4.51871 9.23551 5.30835L5.20775 9.33632C4.41811 10.126 4.41811 11.4061 5.20775 12.1958L6.74919 13.7372C7.3662 14.3543 7.5163 15.2968 7.12415 16.0764C6.69356 16.9323 6.32294 17.8236 6.01791 18.7449C5.82435 19.3293 5.38159 19.7794 4.83109 19.9932C4.60262 20.0819 4.45614 20.2305 4.2006 20.2305H2.02193C0.905231 20.2305 0 21.1357 0 22.2524V27.7476C0 28.8643 0.905231 29.7695 2.02193 29.7695H4.2006C5.07173 29.7695 5.84467 30.4283 6.11851 31.2552C6.42354 32.1765 6.79417 33.0677 7.22475 33.9237C7.6169 34.7033 7.4668 35.6458 6.8498 36.2629L5.40895 37.8043C4.61932 38.594 4.61932 39.8741 5.40895 40.6638L9.23571 44.4905C10.0254 45.2802 11.3055 45.2802 12.0952 44.4905L13.6366 42.9491C14.2536 42.332 15.1962 42.182 15.9758 42.5741C16.8317 43.0047 17.9242 43.476 18.8455 43.781C19.6724 44.0548 20.2306 44.8278 20.2306 45.6989V47.8776C20.2306 48.9943 21.1358 49.8995 22.2525 49.8995H27.6471C28.7638 49.8995 29.669 48.9943 29.669 47.8776V45.6989C29.669 45.4434 29.8176 45.2969 29.9063 45.0684C30.1201 44.5179 30.5703 44.0751 31.1546 43.8816C32.0759 43.5766 32.9672 43.2059 33.8231 42.7754C34.6027 42.3832 35.5452 42.5333 36.1623 43.1503L37.7037 44.6917C38.4934 45.4814 39.7735 45.4814 40.5632 44.6917L44.5911 40.6638C45.3808 39.8741 45.3808 38.594 44.5911 37.8043L43.0497 36.2629C42.4327 35.6458 42.2826 34.7033 42.6747 33.9237C43.1053 33.0678 43.476 32.1765 43.781 31.2552C44.0548 30.4283 44.8278 29.8701 45.6989 29.8701H47.8776C48.9942 29.8701 49.8994 28.9649 49.8994 27.8482Z" fill="#B6C4CF"/>
<path d="M30.007 45.0684C29.9185 45.2967 29.8702 45.5442 29.8702 45.7998V47.9778C29.8702 49.0945 28.9648 50 27.8481 50H22.1519C21.0352 50 20.1298 49.0945 20.1298 47.9778V45.7998C20.1298 44.9285 19.5714 44.1549 18.7445 43.8812C17.8239 43.5764 16.9326 43.2062 16.0765 42.7756C15.2968 42.3833 14.3541 42.5332 13.7374 43.1499L12.1962 44.6911C11.4064 45.4808 10.1258 45.4808 9.33602 44.6911L5.30785 40.6639C4.51911 39.8742 4.51911 38.5935 5.30785 37.8038L6.8501 36.2625C7.4668 35.6458 7.6167 34.7032 7.22435 33.9235C6.79376 33.0674 6.42354 32.176 6.11871 31.2555C5.84507 30.4285 5.07143 29.8702 4.2002 29.8702H2.02213C0.905433 29.8702 0 28.9648 0 27.8481V22.1519C0 21.0352 0.905433 20.1297 2.02213 20.1297H4.2002C4.45573 20.1297 4.70322 20.0815 4.93159 19.9929C4.92958 20.1187 4.92857 20.2454 4.92857 20.3722C4.92857 34.013 15.9869 45.0714 29.6278 45.0714C29.7545 45.0714 29.8813 45.0704 30.007 45.0684Z" fill="#9FACBA"/>
<path d="M25 41.5996C34.1677 41.5996 41.5996 34.1677 41.5996 25C41.5996 15.8323 34.1677 8.40039 25 8.40039C15.8323 8.40039 8.40039 15.8323 8.40039 25C8.40039 34.1677 15.8323 41.5996 25 41.5996Z" fill="#9FACBA"/>
<path d="M24.9999 38.0784C32.2229 38.0784 38.0783 32.223 38.0783 25C38.0783 17.7769 32.2229 11.9215 24.9999 11.9215C17.7768 11.9215 11.9214 17.7769 11.9214 25C11.9214 32.223 17.7768 38.0784 24.9999 38.0784Z" fill="#F8F7F7"/>
</svg>
